<?xml version="1.0" standalone="no"?>
<!DOCTYPE svg PUBLIC "-//W3C//DTD SVG 20010904//EN"
 "http://www.w3.org/TR/2001/REC-SVG-20010904/DTD/svg10.dtd">
<svg version="1.0" xmlns="http://www.w3.org/2000/svg"
 width="2000.000000pt" height="355.000000pt" viewBox="0 0 2000.000000 355.000000"
 preserveAspectRatio="xMidYMid meet">

<g transform="translate(0.000000,355.000000) scale(0.100000,-0.100000)"
fill="#ffffff" stroke="none">
<path d="M1340 3503 c-112 -14 -237 -46 -257 -65 -32 -30 -30 -78 2 -108 25
-23 28 -24 93 -12 182 33 300 44 417 39 190 -9 345 -59 441 -141 58 -50 88
-60 123 -41 31 16 41 33 41 73 0 64 -194 188 -365 233 -65 18 -115 22 -270 24
-104 2 -206 1 -225 -2z"/>
<path d="M18562 3208 l3 -253 293 -3 292 -2 0 255 0 255 -295 0 -295 0 2 -252z"/>
<path d="M11360 3120 l0 -220 190 0 190 0 0 -860 0 -860 -315 0 -315 0 0 -220
0 -220 910 0 910 0 0 220 0 220 -320 0 -320 0 0 1080 0 1080 -465 0 -465 0 0
-220z"/>
<path d="M1333 3240 c-192 -16 -393 -73 -562 -160 -120 -62 -141 -80 -141
-125 0 -76 66 -96 148 -45 121 74 310 140 474 164 269 40 522 0 773 -124 140
-68 235 -130 360 -235 100 -84 129 -92 170 -50 51 50 24 98 -119 210 -45 34
-119 87 -166 118 -288 186 -616 273 -937 247z"/>
<path d="M1296 2969 c-278 -24 -609 -154 -872 -341 -73 -52 -91 -78 -85 -123
3 -28 38 -55 71 -55 18 0 67 26 139 74 192 128 404 221 612 268 149 33 384 33
513 -1 318 -83 594 -306 808 -654 68 -111 74 -117 119 -117 29 0 42 6 59 27
29 37 22 63 -41 165 -288 461 -655 717 -1087 758 -59 5 -116 9 -127 9 -11 -1
-60 -5 -109 -10z"/>
<path d="M4995 2719 c-97 -14 -234 -56 -321 -99 -263 -129 -423 -356 -480
-681 -25 -142 -15 -410 19 -540 104 -395 382 -634 805 -690 118 -16 362 -6
473 20 241 55 434 180 551 357 45 69 95 204 104 280 l7 54 -273 -2 -273 -3
-15 -43 c-19 -58 -103 -147 -171 -181 -83 -42 -149 -54 -261 -49 -123 6 -205
41 -283 121 -79 81 -146 239 -147 345 l0 32 714 0 714 0 6 31 c17 86 -2 306
-39 446 -88 335 -313 537 -669 598 -97 16 -358 19 -461 4z m315 -419 c73 -14
149 -50 198 -94 46 -42 92 -126 92 -168 l0 -28 -415 0 -415 0 15 38 c42 99
119 183 205 219 88 38 222 52 320 33z"/>
<path d="M7225 2719 c-381 -58 -632 -249 -705 -535 -33 -127 -60 -114 244
-114 l264 0 7 33 c37 169 242 272 476 239 210 -30 294 -118 306 -322 l6 -100
-239 0 c-359 0 -511 -24 -678 -104 -166 -80 -272 -193 -319 -341 -30 -94 -31
-282 -3 -365 70 -209 238 -351 466 -396 110 -22 310 -15 425 15 108 28 232 91
293 148 60 56 62 54 62 -64 l0 -73 265 0 265 0 0 668 c0 406 -4 692 -10 732
-47 293 -251 489 -590 565 -88 20 -439 29 -535 14z m595 -1253 c0 -71 -1 -75
-42 -126 -115 -140 -287 -218 -459 -207 -114 7 -179 47 -214 131 -42 100 24
209 150 249 69 22 89 24 343 25 l222 2 0 -74z"/>
<path d="M9497 2720 c-470 -85 -751 -478 -724 -1009 14 -275 116 -503 303
-680 148 -141 328 -211 536 -211 51 0 125 7 163 15 98 20 237 92 313 160 l62
57 0 -99 c0 -204 -69 -333 -213 -399 -60 -28 -67 -29 -222 -29 -128 0 -170 4
-212 18 -58 20 -112 70 -129 119 l-11 33 -286 3 -287 2 0 -43 c0 -116 64 -262
154 -351 159 -157 393 -229 751 -229 204 0 325 17 470 64 302 100 481 334 524
684 7 59 11 392 11 978 l0 887 -265 0 -265 0 0 -79 c0 -117 -3 -120 -66 -62
-73 67 -153 114 -249 147 -65 21 -102 27 -195 30 -63 2 -137 -1 -163 -6z m417
-449 c82 -40 168 -130 207 -217 l30 -66 -3 -221 -3 -222 -30 -60 c-44 -86
-124 -168 -203 -207 -61 -30 -74 -33 -162 -33 -88 0 -101 3 -162 33 -155 76
-254 250 -265 463 -11 218 66 400 215 503 107 73 260 85 376 27z"/>
<path d="M16355 2720 c-155 -24 -292 -70 -410 -138 -87 -50 -212 -182 -252
-263 -36 -74 -63 -166 -63 -216 l0 -33 260 0 c200 0 261 3 264 13 47 162 135
232 328 259 146 21 294 -15 371 -90 65 -63 80 -103 85 -223 l4 -107 -293 -5
c-316 -6 -397 -15 -531 -63 -221 -79 -374 -231 -419 -419 -20 -85 -16 -240 9
-320 58 -190 196 -322 402 -387 66 -20 95 -23 235 -23 131 1 176 5 248 23 118
29 228 85 299 150 l58 54 0 -58 c0 -33 3 -76 6 -97 l7 -37 258 0 259 0 0 693
c0 564 -3 705 -15 760 -42 198 -192 370 -396 453 -147 60 -238 76 -454 80
-110 1 -227 -1 -260 -6z m585 -1261 l0 -80 -78 -78 c-123 -123 -270 -181 -428
-168 -128 10 -205 74 -212 176 -8 106 61 186 182 210 28 6 60 13 71 15 11 2
120 4 243 5 l222 1 0 -81z"/>
<path d="M1220 2674 c-102 -22 -187 -52 -299 -105 -202 -96 -367 -216 -559
-405 -121 -120 -132 -134 -132 -167 0 -47 28 -77 73 -77 29 0 49 16 157 123
509 503 999 626 1412 354 104 -69 253 -212 315 -302 130 -193 193 -412 193
-675 0 -124 2 -140 21 -164 25 -32 79 -36 108 -7 55 55 31 403 -44 626 -33
101 -104 242 -160 320 -56 79 -203 227 -291 293 -122 92 -263 157 -407 187
-86 19 -300 18 -387 -1z"/>
<path d="M18200 2470 l0 -220 195 0 195 0 -2 -532 -3 -533 -317 -3 -318 -2 0
-220 0 -220 910 0 910 0 0 220 0 220 -317 2 -318 3 -3 753 -2 752 -465 0 -465
0 0 -220z"/>
<path d="M1235 2386 c-180 -36 -338 -121 -483 -260 -92 -88 -152 -169 -232
-312 -80 -143 -144 -229 -249 -332 -78 -77 -83 -85 -77 -115 7 -39 39 -67 76
-67 37 0 118 67 203 169 66 77 124 166 222 336 99 173 288 337 461 401 73 27
89 29 214 29 127 -1 140 -3 218 -32 112 -43 194 -95 272 -173 113 -111 182
-229 222 -380 26 -97 27 -282 4 -393 -53 -247 -194 -520 -407 -790 -39 -49
-75 -99 -81 -112 -15 -34 6 -80 44 -96 45 -18 70 0 161 116 226 290 376 582
433 845 27 125 25 366 -4 475 -50 184 -175 381 -320 501 -77 64 -255 154 -352
178 -92 23 -240 28 -325 12z"/>
<path d="M1240 2096 c-122 -34 -243 -132 -335 -270 -62 -94 -99 -172 -144
-308 -33 -100 -82 -186 -146 -257 -77 -85 -257 -181 -341 -181 -42 0 -84 -37
-84 -73 0 -33 34 -73 66 -80 68 -13 228 45 344 123 146 99 242 231 310 425 58
165 112 264 193 351 137 147 269 169 455 77 106 -52 164 -109 212 -206 55
-111 74 -205 66 -332 -7 -134 -35 -238 -101 -370 -66 -133 -130 -220 -255
-343 -155 -154 -304 -256 -453 -312 -31 -12 -62 -30 -68 -41 -17 -33 -7 -80
24 -103 25 -18 31 -19 75 -7 70 18 213 92 305 158 109 78 314 278 393 383 151
200 234 437 234 670 0 236 -85 443 -228 555 -71 56 -198 120 -277 140 -70 18
-182 18 -245 1z"/>
<path d="M1282 1790 c-68 -31 -101 -59 -137 -114 -47 -75 -80 -165 -110 -306
-38 -180 -93 -290 -194 -391 -86 -85 -204 -160 -343 -219 -97 -41 -128 -66
-128 -107 0 -30 42 -73 72 -73 51 0 243 89 361 168 213 140 318 301 382 585
53 235 105 320 195 320 87 0 133 -68 132 -197 -2 -196 -110 -395 -330 -608
-167 -161 -331 -263 -497 -309 -44 -12 -90 -26 -102 -32 -25 -11 -45 -59 -36
-85 21 -60 75 -67 205 -26 184 58 363 171 536 339 181 175 279 319 344 505 30
88 33 105 33 220 0 110 -3 131 -23 175 -65 142 -232 213 -360 155z"/>
<path d="M13980 1045 l0 -305 315 0 315 0 0 305 0 305 -315 0 -315 0 0 -305z"/>
</g>
</svg>
